<?xml version="1.0" standalone="no"?>
<!DOCTYPE svg PUBLIC "-//W3C//DTD SVG 20010904//EN"
 "http://www.w3.org/TR/2001/REC-SVG-20010904/DTD/svg10.dtd">
<svg version="1.0" xmlns="http://www.w3.org/2000/svg"
 width="112.000000pt" height="112.000000pt" viewBox="0 0 112.000000 112.000000"
 preserveAspectRatio="xMidYMid meet">
<metadata>
Created by potrace 1.14, written by Peter Selinger 2001-2017
</metadata>
<g transform="translate(0.000000,112.000000) scale(0.100000,-0.100000)"
fill="#000000" stroke="none">
<path d="M465 1022 c-47 -35 -384 -375 -409 -412 -20 -30 -21 -82 -2 -118 8
-15 106 -118 218 -230 140 -140 213 -205 235 -211 68 -20 94 -2 301 203 106
105 203 206 214 224 25 41 27 102 3 138 l-17 26 -217 -216 c-197 -196 -220
-216 -251 -216 -30 0 -50 17 -192 157 -145 144 -158 160 -158 193 0 30 9 44
63 97 96 94 108 93 220 -15 l67 -67 133 133 132 132 -101 101 c-97 97 -104
102 -150 106 -43 4 -54 1 -89 -25z"/>
<path d="M733 698 l-193 -192 -89 87 c-48 48 -94 87 -101 87 -7 0 -37 -24 -67
-54 -40 -40 -52 -58 -47 -72 8 -22 259 -280 288 -296 16 -9 52 23 272 243 140
140 254 261 254 270 0 16 -101 119 -116 119 -4 0 -95 -86 -201 -192z"/>
</g>
</svg>
